<svg xmlns="http://www.w3.org/2000/svg" viewBox="0 0 64 64" width="64" height="64">
  <defs>
    <linearGradient id="gold" x1="0%" y1="0%" x2="100%" y2="100%">
      <stop offset="0%" stop-color="#F5D060"/>
      <stop offset="50%" stop-color="#D4A017"/>
      <stop offset="100%" stop-color="#B8860B"/>
    </linearGradient>
    <linearGradient id="goldLight" x1="0%" y1="0%" x2="100%" y2="100%">
      <stop offset="0%" stop-color="#F5D060"/>
      <stop offset="100%" stop-color="#D4A017"/>
    </linearGradient>
  </defs>
  <!-- Dark background circle -->
  <circle cx="32" cy="32" r="32" fill="#0E1719"/>
  <!-- Gear teeth -->
  <path d="
    M29 8 L35 8 L36 14 Q38 14.5 39.5 15.5 L45 12 L49 16 L46 21.5 Q47 23 47.5 25 L54 26 L54 32 L47.5 33 Q47 35 46 37 L49 42 L45 46 L40 43 Q38 44.5 36 45 L35 52 L29 52 L28 45 Q26 44.5 24 43 L19 46 L15 42 L18 37 Q17 35 16.5 33 L10 32 L10 26 L16.5 25 Q17 23 18 21.5 L15 16 L19 12 L24.5 15.5 Q26 14.5 28 14 Z
  " fill="url(#gold)" stroke="#B8860B" stroke-width="0.5"/>
  <!-- Inner circle (dark) -->
  <circle cx="32" cy="30" r="10" fill="#0E1719"/>
  <!-- Inner ring (gold accent) -->
  <circle cx="32" cy="30" r="10" fill="none" stroke="url(#goldLight)" stroke-width="2.5"/>
  <!-- Center dot -->
  <circle cx="32" cy="30" r="3" fill="url(#goldLight)"/>
  <!-- Small 'A' hint -->
  <text x="32" y="56" text-anchor="middle" font-family="Arial,sans-serif" font-weight="bold" font-size="8" fill="url(#goldLight)" opacity="0.9">A</text>
</svg>
